<svg xmlns="http://www.w3.org/2000/svg" width="512" height="512" fill="none" viewBox="0 0 512 512"><rect width="512" height="512" fill="#fff" rx="84"/><path fill="#000" fill-rule="evenodd" d="M400.534 75H110.878C101.365 75.01 92.2455 78.8041 85.5193 85.5498C78.7931 92.2955 75.01 101.442 75 110.981V401.476C75.01 411.016 78.7931 420.162 85.5193 426.908C92.2455 433.654 101.365 437.448 110.878 437.458H174.929C173.432 434.539 172.108 431.517 170.969 428.408L170.954 428.367C169.782 425.145 169.168 421.765 169.121 418.372H110.878C106.417 418.347 102.146 416.559 98.9923 413.396C95.8382 410.233 94.0553 405.95 94.0306 401.476V323H189.127V389.368C191.081 388.662 193.112 388.157 195.191 387.866C196.082 387.742 196.975 387.662 197.868 387.617C199.638 379.001 203.137 370.825 208.158 363.598V323H263.256C266.765 316.429 270.604 310.059 274.757 303.915H208.158V208.543H303.254V269.946C309.013 264.374 315.093 259.119 321.469 254.212L322.285 253.584V208.543H380.805L401.7 192.46C403.106 191.374 404.566 190.372 406.071 189.457H322.285V94.0857H400.534C404.995 94.1105 409.265 95.8985 412.419 99.0617C415.574 102.225 417.356 106.508 417.381 110.981V184.48C422.595 182.963 428.074 182.346 433.583 182.704C434.531 182.766 435.474 182.856 436.412 182.974V110.981C436.402 101.442 432.619 92.2955 425.892 85.5498C419.166 78.8041 410.046 75.01 400.534 75ZM94.0306 303.915H189.127V208.543H94.0306V303.915ZM208.158 94.0857V189.457H303.254V94.0857H208.158ZM189.127 94.0857H110.878C106.417 94.1105 102.146 95.8985 98.9923 99.0617C95.8382 102.225 94.0553 106.508 94.0306 110.981V189.457H189.127V94.0857Z" clip-rule="evenodd"/><path fill="#000" d="M400.534 437.458C410.046 437.448 419.166 433.654 425.892 426.908C432.619 420.162 436.402 411.016 436.412 401.476V300.715L417.381 325.765V401.476C417.356 405.95 415.574 410.233 412.419 413.396C409.265 416.559 404.995 418.347 400.534 418.372H323.555C322.065 425.002 319.744 431.416 316.645 437.458H400.534Z"/><path fill="#C9B458" d="M208.158 208.543V303.915H274.757C283.058 291.63 292.609 280.245 303.254 269.946V208.543H208.158Z"/><path fill="#6AAA64" d="M412.419 413.396C415.574 410.233 417.356 405.95 417.381 401.476V325.765L406.713 339.807L406.711 339.808C387.772 364.734 363.619 385.173 335.958 399.676L325.39 405.216C325.14 409.664 324.523 414.064 323.555 418.372H400.534C404.995 418.347 409.265 416.559 412.419 413.396Z"/><path fill="#6AAA64" d="M380.805 208.543H322.285V253.584L380.805 208.543Z"/><path fill="#6AAA64" d="M215.399 354.907C226.414 343.821 241.016 337.152 256.478 336.053L261.996 325.397C262.411 324.595 262.832 323.796 263.256 323H208.158V363.598C210.3 360.515 212.719 357.605 215.399 354.907Z"/><path fill="#000" fill-rule="evenodd" d="M432.365 201.542C425.465 201.094 418.638 203.189 413.16 207.435L332.93 269.188C329.273 272.002 325.723 274.942 322.285 278.001C315.488 284.048 309.13 290.558 303.254 297.482C301.466 299.588 299.723 301.733 298.025 303.915C293.289 310.001 288.909 316.374 284.912 323C282.726 326.625 280.655 330.325 278.702 334.097C287.655 336.511 296.001 340.717 303.254 346.433C305.43 348.147 307.507 349.998 309.472 351.976C314.687 357.224 319.004 363.262 322.285 369.842C324.364 374.013 326.027 378.402 327.236 382.947C352.449 369.727 374.47 351.095 391.74 328.366L395.816 323L410.317 303.915L417.381 294.617L436.412 269.568L453.093 247.613C457.31 242.097 459.388 235.225 458.94 228.28C458.492 221.335 455.548 214.792 450.658 209.872C445.768 204.951 439.265 201.991 432.365 201.542ZM261.027 354.768L262.353 354.785C263.594 354.82 264.831 354.906 266.061 355.042C264.394 354.857 262.713 354.765 261.027 354.768ZM291.566 441.134L292.438 440.112C292.151 440.456 291.86 440.797 291.566 441.134ZM255.191 461.264L256.437 461.055C256.022 461.129 255.607 461.199 255.191 461.264ZM219.828 380.897C221.881 376.579 224.608 372.575 227.941 369.049L228.732 368.232C225.037 371.951 222.041 376.242 219.828 380.897Z" clip-rule="evenodd"/><path fill="#000" d="M261.027 354.768C248.914 354.768 237.297 359.611 228.732 368.232L227.941 369.049C224.608 372.575 221.881 376.579 219.828 380.897C219.535 381.514 219.255 382.138 218.99 382.767C216.614 388.397 215.355 394.502 215.355 400.737C215.358 402.039 215.031 403.32 214.405 404.46C214.1 405.015 213.728 405.528 213.3 405.988C213.18 406.118 213.055 406.243 212.926 406.364C212.871 406.416 212.814 406.467 212.758 406.517C212.452 406.786 212.124 407.031 211.778 407.249C210.681 407.94 209.427 408.337 208.135 408.404C206.843 408.471 205.556 408.205 204.394 407.633C202.348 406.621 200.047 406.248 197.789 406.564C195.531 406.88 193.418 407.868 191.723 409.403C190.644 410.38 189.765 411.551 189.127 412.847C188.763 413.586 188.478 414.366 188.278 415.175C188.019 416.226 187.91 417.302 187.949 418.372C187.993 419.57 188.223 420.76 188.637 421.898C193.58 435.393 203.079 446.709 215.474 453.867C221.102 457.118 227.164 459.417 233.424 460.723C240.542 462.208 247.914 462.409 255.191 461.264L256.437 461.055C268.748 458.855 280.043 452.904 288.83 444.071C289.772 443.125 290.684 442.145 291.566 441.134L292.438 440.112C293.161 439.245 293.859 438.36 294.53 437.458C302.39 426.903 306.676 414.049 306.699 400.798V400.737C306.689 394.722 305.51 388.792 303.254 383.273C302.307 380.956 301.171 378.712 299.852 376.564C295.39 369.299 289.011 363.425 281.427 359.594C277.864 357.804 274.095 356.497 270.219 355.698C268.845 355.415 267.458 355.196 266.061 355.042C264.831 354.906 263.594 354.82 262.353 354.785L261.027 354.768Z"/><path fill="#fff" d="M94.0306 323V401.476C94.0553 405.95 95.8382 410.233 98.9923 413.396C102.146 416.559 106.417 418.347 110.878 418.372H169.121C169.085 415.78 169.379 413.18 170.007 410.636C171.458 404.763 174.625 399.451 179.11 395.39C182.041 392.737 185.447 390.697 189.127 389.368V323H94.0306Z"/><path fill="#fff" d="M110.878 94.0857H189.127V189.457H94.0306V110.981C94.0553 106.508 95.8382 102.225 98.9923 99.0617C102.146 95.8985 106.417 94.1105 110.878 94.0857Z"/><path fill="#fff" d="M208.158 189.457V94.0857H303.254V189.457H208.158Z"/><path fill="#fff" d="M322.285 94.0857V189.457H406.071C409.621 187.301 413.425 185.631 417.381 184.48V110.981C417.356 106.508 415.574 102.225 412.419 99.0617C409.265 95.8985 404.995 94.1105 400.534 94.0857H322.285Z"/><path fill="#fff" d="M189.127 303.915H94.0306V208.543H189.127V303.915Z"/></svg>